<svg width="222" height="268" viewBox="0 0 322 368" fill="none" xmlns="http://www.w3.org/2000/svg">
<path d="M427.75 145.791C427.75 267.632 332.236 366.332 214.5 366.332C96.7643 366.332 1.25 267.632 1.25 145.791C1.25 23.9499 96.7643 -74.75 214.5 -74.75C332.236 -74.75 427.75 23.9499 427.75 145.791Z" stroke="#F64F59" stroke-opacity="0.06" stroke-width="2.5"/>
<path d="M421.772 146.252C421.772 265.186 328.851 361.521 214.324 361.521C99.7965 361.521 6.87598 265.186 6.87598 146.252C6.87598 27.3191 99.7965 -69.0161 214.324 -69.0161C328.851 -69.0161 421.772 27.3191 421.772 146.252Z" stroke="#F64F59" stroke-opacity="0.06" stroke-width="2.5"/>
<path d="M416.145 145.742C416.145 261.009 325.903 354.377 214.675 354.377C103.447 354.377 13.2051 261.009 13.2051 145.742C13.2051 30.4748 103.447 -62.8931 214.675 -62.8931C325.903 -62.8931 416.145 30.4748 416.145 145.742Z" stroke="#F64F59" stroke-opacity="0.06" stroke-width="2.5"/>
<path d="M409.465 145.742C409.465 257.251 322.058 347.574 214.324 347.574C106.59 347.574 19.1836 257.251 19.1836 145.742C19.1836 34.2338 106.59 -56.0896 214.324 -56.0896C322.058 -56.0896 409.465 34.2338 409.465 145.742Z" stroke="#F64F59" stroke-opacity="0.06" stroke-width="2.5"/>
<path d="M402.431 145.742C402.431 253.685 318.091 341.111 214.148 341.111C110.205 341.111 25.8643 253.685 25.8643 145.742C25.8643 37.7996 110.205 -49.6262 214.148 -49.6262C318.091 -49.6262 402.431 37.7996 402.431 145.742Z" stroke="#F64F59" stroke-opacity="0.06" stroke-width="2.5"/>
<path d="M394.696 144.892C394.696 248.987 313.657 333.287 213.797 333.287C113.936 333.287 32.8975 248.987 32.8975 144.892C32.8975 40.7959 113.936 -43.5034 213.797 -43.5034C313.657 -43.5034 394.696 40.7959 394.696 144.892Z" stroke="#F64F59" stroke-opacity="0.06" stroke-width="2.5"/>
<path d="M387.663 145.572C387.663 246.104 309.768 327.504 213.797 327.504C117.826 327.504 39.9307 246.104 39.9307 145.572C39.9307 45.0404 117.826 -36.3596 213.797 -36.3596C309.768 -36.3596 387.663 45.0404 387.663 145.572Z" stroke="#F64F59" stroke-opacity="0.06" stroke-width="2.5"/>
<path d="M380.63 144.892C380.63 241.48 305.882 319.68 213.796 319.68C121.711 319.68 46.9629 241.48 46.9629 144.892C46.9629 48.3038 121.711 -29.8965 213.796 -29.8965C305.882 -29.8965 380.63 48.3038 380.63 144.892Z" stroke="#F64F59" stroke-opacity="0.06" stroke-width="2.5"/>
<path d="M374.653 144.892C374.653 237.722 302.817 312.877 214.324 312.877C125.831 312.877 53.9961 237.722 53.9961 144.892C53.9961 52.0612 125.831 -23.093 214.324 -23.093C302.817 -23.093 374.653 52.0612 374.653 144.892Z" stroke="#F64F59" stroke-opacity="0.06" stroke-width="2.5"/>
<path d="M367.62 145.232C367.62 234.312 299.084 306.414 214.676 306.414C130.268 306.414 61.7324 234.312 61.7324 145.232C61.7324 56.152 130.268 -15.9492 214.676 -15.9492C299.084 -15.9492 367.62 56.152 367.62 145.232Z" stroke="#F64F59" stroke-opacity="0.06" stroke-width="2.5"/>
<path d="M361.642 145.572C361.642 230.895 296.018 299.95 215.203 299.95C134.388 299.95 68.7646 230.895 68.7646 145.572C68.7646 60.249 134.388 -8.80591 215.203 -8.80591C296.018 -8.80591 361.642 60.249 361.642 145.572Z" stroke="#F64F59" stroke-opacity="0.06" stroke-width="2.5"/>
<path d="M354.961 145.402C354.961 227.062 292.171 293.147 214.852 293.147C137.533 293.147 74.7432 227.062 74.7432 145.402C74.7432 63.7422 137.533 -2.34253 214.852 -2.34253C292.171 -2.34253 354.961 63.7422 354.961 145.402Z" stroke="#F64F59" stroke-opacity="0.06" stroke-width="2.5"/>
<path d="M347.928 145.572C347.928 223.577 288.357 286.683 215.027 286.683C141.697 286.683 82.127 223.577 82.127 145.572C82.127 67.5674 141.697 4.46069 215.027 4.46069C288.357 4.46069 347.928 67.5674 347.928 145.572Z" stroke="#F64F59" stroke-opacity="0.06" stroke-width="2.5"/>
</svg>
