<svg width="24" height="23" viewBox="0 0 24 23" fill="none" xmlns="http://www.w3.org/2000/svg">
<path d="M23.7806 9.86509L16.2807 0.279835C16.0662 0.00575147 15.7468 -0.0747486 15.4633 0.0728348C15.1828 0.220418 14.9998 0.571168 14.9998 0.958335V5.75H12.7498C5.71941 5.75 0 13.0583 0 22.0417C0 22.4691 0.221997 22.8448 0.542992 22.9617C0.61199 22.9885 0.680989 23 0.749988 23C1.00348 23 1.24648 22.8352 1.38598 22.5496L1.61097 22.0896C3.64644 17.9228 7.29889 15.3333 11.1448 15.3333H14.9998V20.125C14.9998 20.5122 15.1828 20.8629 15.4633 21.0105C15.7453 21.1562 16.0662 21.0757 16.2807 20.8035L23.7806 11.2202C24.0731 10.8464 24.0731 10.2388 23.7806 9.86509ZM16.4997 17.8116V14.375C16.4997 13.846 16.1637 13.4167 15.7498 13.4167H11.1448C7.60638 13.4167 4.21043 15.3506 1.82547 18.6051C3.03295 12.3338 7.47288 7.66667 12.7498 7.66667H15.7498C16.1637 7.66667 16.4997 7.23734 16.4997 6.70834V3.27175L22.1892 10.5417L16.4997 17.8116Z" fill="#F64F59"/>
</svg>
