<svg width="322" height="368" viewBox="0 0 350 294" fill="none" xmlns="http://www.w3.org/2000/svg">
<path d="M348.75 221.791C348.75 343.632 253.236 442.332 135.5 442.332C17.7643 442.332 -77.75 343.632 -77.75 221.791C-77.75 99.9499 17.7643 1.25 135.5 1.25C253.236 1.25 348.75 99.9499 348.75 221.791Z" stroke="#F64F59" stroke-opacity="0.06" stroke-width="2.5"/>
<path d="M342.772 222.252C342.772 341.186 249.851 437.521 135.324 437.521C20.7965 437.521 -72.124 341.186 -72.124 222.252C-72.124 103.319 20.7965 6.98389 135.324 6.98389C249.851 6.98389 342.772 103.319 342.772 222.252Z" stroke="#F64F59" stroke-opacity="0.06" stroke-width="2.5"/>
<path d="M337.145 221.742C337.145 337.009 246.903 430.377 135.675 430.377C24.4469 430.377 -65.7949 337.009 -65.7949 221.742C-65.7949 106.475 24.4469 13.1069 135.675 13.1069C246.903 13.1069 337.145 106.475 337.145 221.742Z" stroke="#F64F59" stroke-opacity="0.06" stroke-width="2.5"/>
<path d="M330.465 221.742C330.465 333.251 243.058 423.574 135.324 423.574C27.5901 423.574 -59.8164 333.251 -59.8164 221.742C-59.8164 110.234 27.5901 19.9104 135.324 19.9104C243.058 19.9104 330.465 110.234 330.465 221.742Z" stroke="#F64F59" stroke-opacity="0.06" stroke-width="2.5"/>
<path d="M323.431 221.742C323.431 329.685 239.091 417.111 135.148 417.111C31.2045 417.111 -53.1357 329.685 -53.1357 221.742C-53.1357 113.8 31.2045 26.3738 135.148 26.3738C239.091 26.3738 323.431 113.8 323.431 221.742Z" stroke="#F64F59" stroke-opacity="0.06" stroke-width="2.5"/>
<path d="M315.696 220.892C315.696 324.987 234.657 409.287 134.797 409.287C34.9358 409.287 -46.1025 324.987 -46.1025 220.892C-46.1025 116.796 34.9358 32.4966 134.797 32.4966C234.657 32.4966 315.696 116.796 315.696 220.892Z" stroke="#F64F59" stroke-opacity="0.06" stroke-width="2.5"/>
<path d="M308.663 221.572C308.663 322.104 230.768 403.504 134.797 403.504C38.8258 403.504 -39.0693 322.104 -39.0693 221.572C-39.0693 121.04 38.8258 39.6404 134.797 39.6404C230.768 39.6404 308.663 121.04 308.663 221.572Z" stroke="#F64F59" stroke-opacity="0.06" stroke-width="2.5"/>
<path d="M301.63 220.892C301.63 317.48 226.882 395.68 134.796 395.68C42.7107 395.68 -32.0371 317.48 -32.0371 220.892C-32.0371 124.304 42.7107 46.1035 134.796 46.1035C226.882 46.1035 301.63 124.304 301.63 220.892Z" stroke="#F64F59" stroke-opacity="0.06" stroke-width="2.5"/>
<path d="M295.653 220.892C295.653 313.722 223.817 388.877 135.324 388.877C46.8314 388.877 -25.0039 313.722 -25.0039 220.892C-25.0039 128.061 46.8314 52.907 135.324 52.907C223.817 52.907 295.653 128.061 295.653 220.892Z" stroke="#F64F59" stroke-opacity="0.06" stroke-width="2.5"/>
<path d="M288.62 221.232C288.62 310.312 220.084 382.414 135.676 382.414C51.2682 382.414 -17.2676 310.312 -17.2676 221.232C-17.2676 132.152 51.2682 60.0508 135.676 60.0508C220.084 60.0508 288.62 132.152 288.62 221.232Z" stroke="#F64F59" stroke-opacity="0.06" stroke-width="2.5"/>
<path d="M282.642 221.572C282.642 306.895 217.018 375.95 136.203 375.95C55.3883 375.95 -10.2354 306.895 -10.2354 221.572C-10.2354 136.249 55.3883 67.1941 136.203 67.1941C217.018 67.1941 282.642 136.249 282.642 221.572Z" stroke="#F64F59" stroke-opacity="0.06" stroke-width="2.5"/>
<path d="M275.961 221.402C275.961 303.062 213.171 369.147 135.852 369.147C58.5333 369.147 -4.25684 303.062 -4.25684 221.402C-4.25684 139.742 58.5333 73.6575 135.852 73.6575C213.171 73.6575 275.961 139.742 275.961 221.402Z" stroke="#F64F59" stroke-opacity="0.06" stroke-width="2.5"/>
<path d="M268.928 221.572C268.928 299.577 209.357 362.683 136.027 362.683C62.6974 362.683 3.12695 299.577 3.12695 221.572C3.12695 143.567 62.6974 80.4607 136.027 80.4607C209.357 80.4607 268.928 143.567 268.928 221.572Z" stroke="#F64F59" stroke-opacity="0.06" stroke-width="2.5"/>
</svg>
